Coordinates
version=1
nRows=88
nColumns=6
inDegrees=yes

Units are S.I. units (second, meters, Newtons, ...)
If the header above contains a line with 'inDegrees', this indicates whether rotational values are in degrees (yes) or radians (no).

endheader
time	foot_tx	hip_flexion_r	knee_angle_r	ankle_angle_r	lumbar
     86.00000000	      0.19866883	     67.66452418	    -51.82461368	     11.30377020	    -23.93649194
     86.01000000	      0.19871501	     66.95003219	    -51.02094612	     11.13074354	    -23.55566131
     86.02000000	      0.19876675	     66.21765846	    -50.20367275	     10.94953374	    -23.17483172
     86.03000000	      0.19881640	     65.46555293	    -49.37245665	     10.76091943	    -22.79607072
     86.04000000	      0.19886461	     64.69807861	    -48.52745702	     10.56491944	    -22.41557579
     86.05000000	      0.19890805	     63.91200531	    -47.67053108	     10.36338060	    -22.03707215
     86.06000000	      0.19894968	     63.11074768	    -46.80237282	     10.15649882	    -21.65760091
     86.07000000	      0.19898699	     62.29147447	    -45.92568888	      9.94658208	    -21.28037412
     86.08000000	      0.19902489	     61.45742212	    -45.04161167	      9.73379367	    -20.90228945
     86.09000000	      0.19906184	     60.60781055	    -44.15295116	      9.51999647	    -20.52447917
     86.10000000	      0.19909395	     59.73738230	    -43.26097521	      9.30648400	    -20.15270782
     86.11000000	      0.19912606	     58.85151404	    -42.36571784	      9.09235898	    -19.78229726
     86.12000000	      0.19914933	     57.94568153	    -41.46742149	      8.87867513	    -19.41846261
     86.13000000	      0.19917559	     57.02686965	    -40.56441928	      8.66276818	    -19.05425081
     86.14000000	      0.19918404	     56.09737122	    -39.65890223	      8.44694555	    -18.68897967
     86.15000000	      0.19918312	     55.15818656	    -38.74851611	      8.22899335	    -18.32204004
     86.16000000	      0.19916795	     54.20564666	    -37.83699245	      8.01128830	    -17.95988708
     86.17000000	      0.19913649	     53.24397727	    -36.92544374	      7.79439741	    -17.59900097
     86.18000000	      0.19908837	     52.27659394	    -36.01602090	      7.57954111	    -17.23650147
     86.19000000	      0.19902834	     51.29613786	    -35.11308625	      7.36947386	    -16.88317907
     86.20000000	      0.19895522	     50.31409184	    -34.21536804	      7.16316110	    -16.52675306
     86.21000000	      0.19887396	     49.32536970	    -33.32537555	      6.96200920	    -16.17558663
     86.22000000	      0.19878651	     48.33507171	    -32.44260994	      6.76540275	    -15.82532618
     86.23000000	      0.19869778	     47.34644940	    -31.56784938	      6.57314282	    -15.47463852
     86.24000000	      0.19861391	     46.35787317	    -30.70241721	      6.38542790	    -15.12843526
     86.25000000	      0.19853506	     45.37486315	    -29.84882044	      6.20303907	    -14.78226395
     86.26000000	      0.19846575	     44.39769292	    -29.00821145	      6.02581234	    -14.43985535
     86.27000000	      0.19840385	     43.43037141	    -28.18216500	      5.85421668	    -14.09821417
     86.28000000	      0.19834989	     42.47169833	    -27.37292079	      5.68922137	    -13.76065510
     86.29000000	      0.19830300	     41.52189669	    -26.58166292	      5.53125108	    -13.42828701
     86.30000000	      0.19826186	     40.58421563	    -25.80912349	      5.38026725	    -13.09865745
     86.31000000	      0.19823020	     39.65832339	    -25.05614139	      5.23609933	    -12.77426336
     86.32000000	      0.19819769	     38.75406862	    -24.32308416	      5.09877021	    -12.44365628
     86.33000000	      0.19817234	     37.87018196	    -23.61176234	      4.96865721	    -12.10956161
     86.34000000	      0.19815214	     37.00834351	    -22.92047968	      4.84488231	    -11.77030857
     86.35000000	      0.19813530	     36.16586406	    -22.25068436	      4.72862519	    -11.42972165
     86.36000000	      0.19812118	     35.34799298	    -21.60094596	      4.61910710	    -11.08060023
     86.37000000	      0.19810831	     34.55204020	    -20.97243128	      4.51735745	    -10.72677063
     86.38000000	      0.19810316	     33.77739759	    -20.36415079	      4.42232715	    -10.37083494
     86.39000000	      0.19808590	     33.02331393	    -19.78122522	      4.33860816	    -10.01156736
     86.40000000	      0.19805530	     32.28930973	    -19.22487643	      4.26699804	     -9.64986620
     86.41000000	      0.19803192	     31.57525131	    -18.69101454	      4.20358578	     -9.28881173
     86.42000000	      0.19801132	     30.88001489	    -18.18078608	      4.14967649	     -8.92792561
     86.43000000	      0.19800413	     30.20064714	    -17.69280771	      4.10395534	     -8.57141258
     86.44000000	      0.19801326	     29.53893777	    -17.22445196	      4.06472176	     -8.21642541
     86.45000000	      0.19803955	     28.89412407	    -16.77343819	      4.03064565	     -7.86361389
     86.46000000	      0.19808422	     28.26307227	    -16.33862961	      4.00104883	     -7.51824284
     86.47000000	      0.19814322	     27.64876947	    -15.91809886	      3.97493391	     -7.17600321
     86.48000000	      0.19821451	     27.05088557	    -15.51091996	      3.95191901	     -6.83742475
     86.49000000	      0.19829763	     26.46967611	    -15.11689984	      3.93191538	     -6.50264590
     86.50000000	      0.19839297	     25.90549441	    -14.73634720	      3.91503295	     -6.17196445
     86.51000000	      0.19850079	     25.35696135	    -14.36968185	      3.90153507	     -5.84780870
     86.52000000	      0.19862042	     24.82663320	    -14.01665257	      3.89108041	     -5.52706225
     86.53000000	      0.19874818	     24.31015709	    -13.67763460	      3.88427559	     -5.21555643
     86.54000000	      0.19888144	     23.81071874	    -13.35155061	      3.88035118	     -4.90903564
     86.55000000	      0.19901695	     23.32716258	    -13.03696283	      3.87867693	     -4.60818753
     86.56000000	      0.19914716	     22.85732056	    -12.73410245	      3.87998986	     -4.31527935
     86.57000000	      0.19926916	     22.40194422	    -12.44142788	      3.88360967	     -4.02763158
     86.58000000	      0.19938096	     21.95961423	    -12.15892185	      3.88978734	     -3.74629668
     86.59000000	      0.19948128	     21.52999078	    -11.88584331	      3.89837230	     -3.46985577
     86.60000000	      0.19957087	     21.11276718	    -11.62236062	      3.90952650	     -3.19804777
     86.61000000	      0.19965012	     20.70825066	    -11.36752595	      3.92280627	     -2.92867697
     86.62000000	      0.19971936	     20.31560086	    -11.12036298	      3.93781099	     -2.66113123
     86.63000000	      0.19977811	     19.93321917	    -10.87935403	      3.95403499	     -2.39504479
     86.64000000	      0.19982591	     19.55896651	    -10.64228874	      3.97076832	     -2.12983067
     86.65000000	      0.19986284	     19.19022749	    -10.40675861	      3.98727435	     -1.86519098
     86.66000000	      0.19988984	     18.82504089	    -10.17054684	      4.00275965	     -1.60055323
     86.67000000	      0.19990780	     18.46260608	     -9.93248884	      4.01671454	     -1.33547946
     86.68000000	      0.19991712	     18.10210781	     -9.69219488	      4.02888551	     -1.07066146
     86.69000000	      0.19991877	     17.74568438	     -9.44990819	      4.03900622	     -0.80416475
     86.70000000	      0.19991294	     17.39445014	     -9.20658299	      4.04729648	     -0.53611065
     86.71000000	      0.19990095	     17.04622475	     -8.96376689	      4.05452432	     -0.26931852
     86.72000000	      0.19988334	     16.70421114	     -8.72219451	      4.06066163	     -0.00255514
     86.73000000	      0.19986228	     16.36803430	     -8.48349582	      4.06637235	      0.26222496
     86.74000000	      0.19983644	     16.03537173	     -8.24828654	      4.07229657	      0.52211811
     86.75000000	      0.19981152	     15.73815342	     -8.02022343	      4.07780040	      0.81076947
     86.76000000	      0.19978383	     15.38583267	     -7.78934862	      4.08386658	      1.02800299
     86.77000000	      0.19976253	     15.07017805	     -7.56928227	      4.09084668	      1.27139868
     86.78000000	      0.19974810	     14.75997128	     -7.35617079	      4.09871930	      1.50609857
     86.79000000	      0.19974149	     14.45598435	     -7.14987501	      4.10731909	      1.73299040
     86.80000000	      0.19974274	     14.15862601	     -6.95054292	      4.11664490	      1.95210034
     86.81000000	      0.19975216	     13.86919299	     -6.75881409	      4.12660142	      2.16223301
     86.82000000	      0.19976151	     13.58578079	     -6.57337527	      4.13715068	      2.36330913
     86.83000000	      0.19976984	     13.31129237	     -6.39484446	      4.14807101	      2.55614366
     86.84000000	      0.19977100	     13.04474925	     -6.22234198	      4.15932747	      2.74073441
     86.85000000	      0.19976253	     12.78532705	     -6.05539193	      4.17095078	      2.91685861
     86.86000000	      0.19974543	     12.53262377	     -5.89381858	      4.18290365	      3.08436283
     86.87000000	      0.19972265	     12.28632658	     -5.73796190	      4.19512848	      3.24228317
